<svg id="Layer_1" data-name="Layer 1" xmlns="http://www.w3.org/2000/svg" viewBox="0 0 645.43 644.75"><defs><style>.cls-1,.cls-2{stroke:#fff;stroke-miterlimit:10;}.cls-1{stroke-width:20px;}</style></defs><path class="cls-1" d="M396,83.62C223.48,83.62,83.62,223.48,83.62,396S223.48,708.38,396,708.38c164.68,0,299.59-127.44,311.51-289.08-46.52,33.27-109.41,47.59-168,53.82-34.09,3.63-69.08,5.61-102.18-3.28s-64.44-30.34-77.44-62c-6.61-16.13-8.08-33.44-7.26-51C339.26,413,298.94,463,245.54,485.59c-6.31,2.68-13.55,5-19.84,2.29-9.33-4-11.2-16.19-11.73-26.34-2.62-50.32-.08-111,43.21-136.75,9.28-5.53,32.44-17.11,60.08-11.61,13.75,2.74,27.73,9.51,27.07,12.14-1.23,4.92-50-19.49-87.15-.53C203.36,352.25,213.4,450.59,214,461.54c.53,10.15,2.4,22.33,11.73,26.34,6.29,2.7,13.53.39,19.84-2.29C298.94,463,339.26,413,352.68,356.84c.64-13.8,2.71-27.73,4.82-41.3a173.87,173.87,0,0,1-4.82,41.3c-.82,17.51.65,34.82,7.26,51,13,31.71,44.34,53.15,77.44,62s68.09,6.91,102.18,3.28c58.54-6.23,121.43-20.55,168-53.82q.86-11.55.87-23.3C708.38,223.48,568.52,83.62,396,83.62Z" transform="translate(-73.62 -73.62)"/><path class="cls-2" d="M352.68,356.84a173.87,173.87,0,0,0,4.82-41.3C355.39,329.11,353.32,343,352.68,356.84Z" transform="translate(-73.62 -73.62)"/></svg>